# xmcd
#
# Track frame offsets: 
#        150
#        17687
#        40244
#        59257
#        82104
#        106465
#        146111
#        175802
#        205891
#        235257
#        270126
#
# Disc length: 3835 seconds
#
# Revision: 1
# Processed by: cddbd v1.5.2PL0 Copyright (c) Steve Scherf et al.
# Submitted via: ExactAudioCopy v1.3
#
DISCID=930ef90b
DTITLE=Fred Chapellier and Billy Price - Love on Stage
DYEAR=2010
DGENRE=Blues
TTITLE0=Keep it to yourself
TTITLE1=She left me with these Blues
TTITLE2=Don't let my Baby ride
TTITLE3=Night Work
TTITLE4=When the Lights came on
TTITLE5=I'll take care of you
TTITLE6=A nickel and a nail
TTITLE7=Under the influence
TTITLE8=Last two dollars
TTITLE9=Love and happiness
TTITLE10=Good time Charlie
EXTD=
EXTT0=
EXTT1=
EXTT2=
EXTT3=
EXTT4=
EXTT5=
EXTT6=
EXTT7=
EXTT8=
EXTT9=
EXTT10=
PLAYORDER=
